<svg width="38" height="35" viewBox="0 0 38 35" fill="none" xmlns="http://www.w3.org/2000/svg">
<path d="M1.24656 7.49705L35.8038 0.82914C35.9923 0.792786 36.1872 0.809912 36.3664 0.87858C36.5456 0.947248 36.702 1.06472 36.8179 1.21769C36.9338 1.37066 37.0046 1.55302 37.0222 1.74413C37.0399 1.93525 37.0036 2.12748 36.9177 2.29907L21.1483 33.7653C21.0598 33.9414 20.9225 34.0883 20.7529 34.1886C20.5833 34.2889 20.3884 34.3383 20.1914 34.3309C19.9945 34.3236 19.8038 34.2598 19.6421 34.1471C19.4804 34.0345 19.3545 33.8777 19.2794 33.6956L14.6383 22.3925C14.5632 22.2095 14.5426 22.0088 14.5787 21.8144C14.6149 21.62 14.7064 21.4402 14.8422 21.2964L24.6939 10.8726C24.7527 10.8106 24.7951 10.7349 24.8172 10.6523C24.8393 10.5698 24.8406 10.483 24.8207 10.3999L24.7757 10.2793C24.722 10.1765 24.6351 10.095 24.5291 10.0479C24.4232 10.0008 24.3045 9.99088 24.1922 10.0198L24.0805 10.0631L11.3106 16.765C11.1355 16.8564 10.9379 16.8954 10.7413 16.8774C10.5447 16.8594 10.3574 16.7852 10.2018 16.6636L0.807726 9.318C0.652163 9.19659 0.53483 9.03297 0.469739 8.84668C0.404647 8.6604 0.394548 8.45931 0.440646 8.26744C0.486744 8.07556 0.587092 7.90101 0.729707 7.76463C0.872322 7.62824 1.05118 7.53578 1.24492 7.4983L1.24656 7.49705Z" fill="url(#paint0_linear_6_289)"/>
<defs>
<linearGradient id="paint0_linear_6_289" x1="1.47285" y1="10.2528" x2="42.7853" y2="17.9899" gradientUnits="userSpaceOnUse">
<stop stop-color="#FF9D43"/>
<stop offset="1" stop-color="#FF4E43"/>
</linearGradient>
</defs>
</svg>
