<svg width="26" height="27" viewBox="0 0 26 27" fill="none" xmlns="http://www.w3.org/2000/svg">
<path d="M9.10213 27C7.90896 26.9944 6.72886 26.7553 5.6305 26.2966C4.53213 25.838 3.53746 25.169 2.70435 24.3286C1.8775 23.5575 1.2133 22.6336 0.749753 21.6097C0.286208 20.5857 0.0324186 19.4819 0.00290793 18.3614C-0.0266027 17.2409 0.168745 16.1256 0.577772 15.0794C0.986798 14.0333 1.60148 13.0767 2.38663 12.2646L13.0159 1.70677C13.5835 1.14929 14.2601 0.710779 15.0047 0.417709C15.7494 0.124639 16.5467 -0.0169103 17.3485 0.00160854C18.2073 0.00448621 19.057 0.17559 19.848 0.504943C20.639 0.834295 21.3554 1.3153 21.9554 1.91992C23.1498 3.05135 23.8424 4.60059 23.883 6.23138C23.9235 7.86217 23.3087 9.4429 22.1721 10.6304L11.485 21.1882C11.1427 21.5273 10.7354 21.7961 10.2867 21.9791C9.83796 22.162 9.35678 22.2555 8.87106 22.254C8.34635 22.2547 7.82681 22.1519 7.34313 21.9518C6.85944 21.7517 6.42141 21.4582 6.05488 21.0888C5.32228 20.3909 4.8992 19.4367 4.87756 18.4336C4.85593 17.4305 5.2375 16.4596 5.93934 15.7317L15.8032 5.98388C16.0839 5.80044 16.421 5.71937 16.7561 5.7547C17.0911 5.79004 17.4031 5.93956 17.638 6.17736C17.8728 6.41517 18.0157 6.7263 18.042 7.05687C18.0682 7.38744 17.9762 7.71663 17.7817 7.98745L7.91789 17.7353C7.75341 17.9303 7.67335 18.181 7.69496 18.4335C7.71657 18.686 7.83812 18.92 8.03342 19.0852C8.23664 19.2865 8.51059 19.4035 8.79885 19.412C8.90562 19.4135 9.01165 19.3942 9.1108 19.3552C9.20994 19.3162 9.30026 19.2582 9.37652 19.1847L20.0491 8.62688C20.6482 7.97208 20.9613 7.11161 20.9207 6.23149C20.8802 5.35137 20.4893 4.52229 19.8325 3.92348C19.2224 3.3003 18.3928 2.93088 17.5144 2.89123C16.6359 2.85158 15.7754 3.14472 15.11 3.71034L4.43738 14.2113C3.91841 14.7597 3.51478 15.4038 3.24972 16.1063C2.98466 16.8088 2.86341 17.556 2.89294 18.3048C2.92247 19.0536 3.10219 19.7892 3.42178 20.4694C3.74136 21.1496 4.1945 21.7609 4.75511 22.2682C5.3173 22.8416 5.98999 23.299 6.73389 23.6138C7.47778 23.9285 8.27796 24.0942 9.08769 24.1012C9.78584 24.1068 10.4782 23.9766 11.1251 23.7181C11.7719 23.4596 12.3605 23.078 12.857 22.595L23.5296 12.0372C23.6633 11.9047 23.8222 11.7994 23.9973 11.7274C24.1724 11.6553 24.3601 11.6179 24.5499 11.6172C24.7396 11.6166 24.9277 11.6527 25.1033 11.7235C25.2788 11.7944 25.4385 11.8985 25.5731 12.0301C25.7078 12.1617 25.8148 12.318 25.888 12.4903C25.9613 12.6625 25.9993 12.8473 26 13.034C26.0007 13.2207 25.9639 13.4057 25.892 13.5784C25.82 13.7512 25.7141 13.9083 25.5804 14.0408L14.9078 24.5986C14.15 25.3573 13.2466 25.9603 12.2499 26.3726C11.2533 26.7849 10.1833 26.9981 9.10213 27Z" fill="white" fill-opacity="0.5"/>
</svg>
