<svg width="6" height="27" viewBox="0 0 6 27" fill="none" xmlns="http://www.w3.org/2000/svg">
<path opacity="0.8" d="M6 23.8846C6 24.7109 5.68393 25.5033 5.12132 26.0875C4.55871 26.6718 3.79565 27 3 27C2.20435 27 1.44129 26.6718 0.878679 26.0875C0.31607 25.5033 0 24.7109 0 23.8846C0 23.0584 0.31607 22.266 0.878679 21.6817C1.44129 21.0975 2.20435 20.7692 3 20.7692C3.79565 20.7692 4.55871 21.0975 5.12132 21.6817C5.68393 22.266 6 23.0584 6 23.8846ZM6 13.5C6 14.3263 5.68393 15.1187 5.12132 15.7029C4.55871 16.2872 3.79565 16.6154 3 16.6154C2.20435 16.6154 1.44129 16.2872 0.878679 15.7029C0.31607 15.1187 0 14.3263 0 13.5C0 12.6737 0.31607 11.8813 0.878679 11.2971C1.44129 10.7128 2.20435 10.3846 3 10.3846C3.79565 10.3846 4.55871 10.7128 5.12132 11.2971C5.68393 11.8813 6 12.6737 6 13.5ZM6 3.11538C6 3.94164 5.68393 4.73405 5.12132 5.31829C4.55871 5.90254 3.79565 6.23077 3 6.23077C2.20435 6.23077 1.44129 5.90254 0.878679 5.31829C0.31607 4.73405 0 3.94164 0 3.11538C0 2.28913 0.31607 1.49672 0.878679 0.912475C1.44129 0.328227 2.20435 0 3 0C3.79565 0 4.55871 0.328227 5.12132 0.912475C5.68393 1.49672 6 2.28913 6 3.11538Z" fill="white"/>
</svg>
