<svg width="27" height="23" viewBox="0 0 27 23" fill="none" xmlns="http://www.w3.org/2000/svg">
<path d="M10.9688 11.5C10.745 11.5 10.5304 11.5865 10.3721 11.7406C10.2139 11.8946 10.125 12.1036 10.125 12.3214C10.125 12.5393 10.2139 12.7482 10.3721 12.9023C10.5304 13.0563 10.745 13.1429 10.9688 13.1429H16.0312C16.255 13.1429 16.4696 13.0563 16.6279 12.9023C16.7861 12.7482 16.875 12.5393 16.875 12.3214C16.875 12.1036 16.7861 11.8946 16.6279 11.7406C16.4696 11.5865 16.255 11.5 16.0312 11.5H10.9688ZM3.57619e-07 2.875C3.57619e-07 1.288 1.323 0 2.95313 0H24.0469C25.677 0 27 1.288 27 2.875V5.33929C27 6.486 26.3098 7.475 25.3125 7.93829V18.0714C25.3125 19.3786 24.7791 20.6322 23.8297 21.5565C22.8803 22.4807 21.5927 23 20.25 23H6.75C5.40734 23 4.11968 22.4807 3.17027 21.5565C2.22087 20.6322 1.6875 19.3786 1.6875 18.0714V7.93829C1.18236 7.70502 0.755618 7.33694 0.456891 6.87685C0.158163 6.41677 -0.000274735 5.88358 3.57619e-07 5.33929V2.875ZM2.95313 1.64286C2.61746 1.64286 2.29554 1.77267 2.05819 2.00374C1.82084 2.23481 1.6875 2.54822 1.6875 2.875V5.33929C1.6875 6.01943 2.2545 6.57143 2.95313 6.57143H24.0469C24.3825 6.57143 24.7045 6.44161 24.9418 6.21054C25.1792 5.97947 25.3125 5.66607 25.3125 5.33929V2.875C25.3125 2.54822 25.1792 2.23481 24.9418 2.00374C24.7045 1.77267 24.3825 1.64286 24.0469 1.64286H2.95313ZM3.375 8.21429V18.0714C3.375 18.9429 3.73058 19.7786 4.36351 20.3948C4.99645 21.011 5.85489 21.3571 6.75 21.3571H20.25C21.1451 21.3571 22.0035 21.011 22.6365 20.3948C23.2694 19.7786 23.625 18.9429 23.625 18.0714V8.21429H3.375Z" fill="white"/>
</svg>
