<svg width="28" height="23" viewBox="0 0 28 23" fill="none" xmlns="http://www.w3.org/2000/svg">
<path d="M2.57551 4.79167C2.8397 3.7634 3.50128 2.84383 4.45101 2.18478C5.40074 1.52572 6.58184 1.16659 7.79931 1.16667H20.6173C21.8348 1.16659 23.0159 1.52572 23.9656 2.18478C24.9154 2.84383 25.5769 3.7634 25.8411 4.79167L26.0378 5.55787C27.0571 9.52644 27.0571 13.6402 26.0378 17.6088L25.8411 18.375C25.5769 19.4033 24.9154 20.3228 23.9656 20.9819C23.0159 21.6409 21.8348 22.0001 20.6173 22H7.80064C6.58318 22.0001 5.40208 21.6409 4.45235 20.9819C3.50262 20.3228 2.84104 19.4033 2.57685 18.375L2.38021 17.6088C1.36098 13.6402 1.36098 9.52645 2.38021 5.55787L2.57685 4.79167H2.57551Z" stroke="white" stroke-width="2" stroke-linecap="round" stroke-linejoin="round"/>
<path d="M1.5 12.7407H9.97847C9.97847 13.8981 11.2801 16.213 14.5334 16.213C17.7881 16.213 19.0897 13.8981 19.0897 12.7407H26.9167" stroke="white" stroke-width="2" stroke-linejoin="round"/>
</svg>
