<svg width="47" height="47" viewBox="0 0 47 47" fill="none" xmlns="http://www.w3.org/2000/svg">
<path d="M39.8399 33.5976H36.6132C36.3929 33.5976 36.1863 33.694 36.0486 33.8638C35.7274 34.254 35.3831 34.6303 35.0205 34.9883C33.5375 36.4728 31.7809 37.6559 29.8478 38.472C27.845 39.3179 25.6924 39.7519 23.5184 39.748C21.3198 39.748 19.1902 39.3166 17.189 38.472C15.2559 37.6559 13.4992 36.4728 12.0162 34.9883C10.5306 33.5089 9.34593 31.7553 8.52794 29.8248C7.67882 27.8236 7.25197 25.6985 7.25197 23.4999C7.25197 21.3014 7.68341 19.1763 8.52794 17.1751C9.34494 15.2428 10.5199 13.5033 12.0162 12.0116C13.5125 10.5199 15.2521 9.34487 17.189 8.52788C19.1902 7.68335 21.3198 7.2519 23.5184 7.2519C25.7169 7.2519 27.8466 7.67876 29.8478 8.52788C31.7847 9.34487 33.5242 10.5199 35.0205 12.0116C35.3831 12.3742 35.7228 12.7505 36.0486 13.1361C36.1863 13.3059 36.3975 13.4023 36.6132 13.4023H39.8399C40.129 13.4023 40.308 13.081 40.1474 12.8377C36.627 7.36665 30.4674 3.74526 23.4679 3.76362C12.4706 3.79116 3.65353 12.7184 3.76369 23.7019C3.87384 34.511 12.6772 43.2363 23.5184 43.2363C30.4995 43.2363 36.6316 39.6195 40.1474 34.1622C40.3034 33.9189 40.129 33.5976 39.8399 33.5976ZM43.9202 23.2108L37.4072 18.0702C37.164 17.8774 36.8106 18.0518 36.8106 18.3593V21.8476H22.3985C22.1965 21.8476 22.0313 22.0128 22.0313 22.2148V24.7851C22.0313 24.9871 22.1965 25.1523 22.3985 25.1523H36.8106V28.6406C36.8106 28.9481 37.1686 29.1225 37.4072 28.9297L43.9202 23.7891C43.9641 23.7548 43.9996 23.7109 44.024 23.6608C44.0484 23.6107 44.0611 23.5557 44.0611 23.4999C44.0611 23.4442 44.0484 23.3892 44.024 23.3391C43.9996 23.289 43.9641 23.2451 43.9202 23.2108V23.2108Z" fill="black"/>
</svg>
